<svg width="170" height="87" viewBox="0 0 170 87" fill="none" xmlns="http://www.w3.org/2000/svg">
    <path d="M8.98 86.36C7.636 86.36 6.328 86.156 5.056 85.748C3.792 85.34 2.72 84.752 1.84 83.984L4.084 80.408C4.412 80.792 4.852 81.128 5.404 81.416C5.956 81.704 6.548 81.928 7.18 82.088C7.812 82.248 8.412 82.328 8.98 82.328C9.62 82.328 10.148 82.236 10.564 82.052C10.98 81.868 11.188 81.608 11.188 81.272C11.188 80.944 11.028 80.676 10.708 80.468C10.388 80.252 9.796 80.032 8.932 79.808L7.684 79.472C5.86 78.976 4.556 78.288 3.772 77.408C2.988 76.52 2.596 75.472 2.596 74.264C2.596 73.504 2.76 72.796 3.088 72.14C3.424 71.484 3.888 70.912 4.48 70.424C5.08 69.928 5.784 69.544 6.592 69.272C7.4 69 8.276 68.864 9.22 68.864C10.58 68.864 11.844 69.064 13.012 69.464C14.188 69.856 15.124 70.4 15.82 71.096L13.492 74.576C13.212 74.248 12.852 73.96 12.412 73.712C11.972 73.456 11.488 73.256 10.96 73.112C10.432 72.968 9.9 72.896 9.364 72.896C8.94 72.896 8.572 72.948 8.26 73.052C7.948 73.148 7.704 73.284 7.528 73.46C7.36 73.628 7.276 73.824 7.276 74.048C7.276 74.248 7.348 74.412 7.492 74.54C7.636 74.668 7.872 74.792 8.2 74.912C8.536 75.032 8.988 75.176 9.556 75.344L10.78 75.704C12.604 76.24 13.916 76.9 14.716 77.684C15.516 78.468 15.916 79.48 15.916 80.72C15.916 81.832 15.628 82.812 15.052 83.66C14.476 84.508 13.668 85.172 12.628 85.652C11.588 86.124 10.372 86.36 8.98 86.36ZM29.9436 86.36C28.1996 86.36 26.6556 86.008 25.3116 85.304C23.9756 84.6 22.9276 83.6 22.1676 82.304C21.4156 81 21.0396 79.456 21.0396 77.672C21.0396 76.368 21.2596 75.176 21.6996 74.096C22.1396 73.016 22.7596 72.084 23.5596 71.3C24.3676 70.516 25.3196 69.912 26.4156 69.488C27.5116 69.056 28.7116 68.84 30.0156 68.84C31.5036 68.84 32.7276 69.028 33.6876 69.404C34.6476 69.78 35.5356 70.312 36.3516 71L33.9756 74.984C33.5436 74.512 33.0156 74.16 32.3916 73.928C31.7756 73.688 31.0876 73.568 30.3276 73.568C29.6476 73.568 29.0476 73.664 28.5276 73.856C28.0076 74.04 27.5676 74.308 27.2076 74.66C26.8556 75.012 26.5876 75.436 26.4036 75.932C26.2196 76.428 26.1276 76.984 26.1276 77.6C26.1276 78.44 26.2956 79.16 26.6316 79.76C26.9676 80.36 27.4516 80.824 28.0836 81.152C28.7156 81.472 29.4796 81.632 30.3756 81.632C31.0636 81.632 31.7596 81.524 32.4636 81.308C33.1756 81.092 33.8556 80.752 34.5036 80.288L36.7116 84.344C35.9596 84.92 35.0276 85.4 33.9156 85.784C32.8036 86.168 31.4796 86.36 29.9436 86.36ZM42.5729 86V69.2H49.7009C51.0129 69.2 52.1569 69.404 53.1329 69.812C54.1169 70.22 54.8769 70.816 55.4129 71.6C55.9569 72.376 56.2289 73.32 56.2289 74.432C56.2289 75.248 56.0849 75.964 55.7969 76.58C55.5089 77.196 55.1249 77.716 54.6449 78.14C54.1649 78.564 53.6369 78.896 53.0609 79.136L57.2129 86H51.5009L48.3569 80.216H47.4209V86H42.5729ZM47.4209 76.4H49.1969C49.8609 76.4 50.3809 76.28 50.7569 76.04C51.1409 75.8 51.3329 75.376 51.3329 74.768C51.3329 74.152 51.1409 73.728 50.7569 73.496C50.3809 73.256 49.8689 73.136 49.2209 73.136H47.4209V76.4ZM61.2724 86L67.3924 69.2H73.1524L79.2484 86H73.7764L72.8404 83H67.5364L66.6004 86H61.2724ZM68.5684 78.992H71.7844L70.2004 74.192L68.5684 78.992ZM84.7707 86V69.2H91.9467C93.2347 69.2 94.3827 69.428 95.3907 69.884C96.3987 70.34 97.1907 71.004 97.7667 71.876C98.3507 72.74 98.6427 73.784 98.6427 75.008C98.6427 76.24 98.3747 77.288 97.8387 78.152C97.3027 79.016 96.5267 79.676 95.5107 80.132C94.4947 80.588 93.2667 80.816 91.8267 80.816H89.6187V86H84.7707ZM89.6187 76.808H91.6347C92.3067 76.808 92.8347 76.684 93.2187 76.436C93.6027 76.18 93.7947 75.728 93.7947 75.08C93.7947 74.408 93.5947 73.948 93.1947 73.7C92.7947 73.452 92.2827 73.328 91.6587 73.328H89.6187V76.808ZM104.639 86V69.2H117.095V73.376H109.487V75.56H115.727V79.376H109.487V81.776H117.191V86H104.639ZM123.968 86V69.2H131.097C132.409 69.2 133.553 69.404 134.528 69.812C135.512 70.22 136.273 70.816 136.809 71.6C137.352 72.376 137.624 73.32 137.624 74.432C137.624 75.248 137.481 75.964 137.193 76.58C136.905 77.196 136.521 77.716 136.041 78.14C135.561 78.564 135.033 78.896 134.457 79.136L138.609 86H132.896L129.753 80.216H128.817V86H123.968ZM128.817 76.4H130.593C131.257 76.4 131.777 76.28 132.153 76.04C132.536 75.8 132.728 75.376 132.728 74.768C132.728 74.152 132.536 73.728 132.153 73.496C131.777 73.256 131.265 73.136 130.616 73.136H128.817V76.4Z" fill="#EC2600"/>
    <path d="M11.4173 51.4299C8.79372 51.4299 6.69922 50.9559 5.13387 50.0079C3.39213 49.0157 2.52126 47.5496 2.52126 45.6094V28.5779C1.22047 26.748 0.570078 24.4992 0.570078 21.8314C0.570078 19.1417 1.22047 16.8157 2.52126 14.8535H7.58111C10.1827 14.8535 12.0457 15.6913 13.1701 17.3669C12.6189 17.9842 12.1339 18.7669 11.715 19.7149C11.2961 20.6629 11.0866 21.3464 11.0866 21.7653C11.0866 22.1621 11.1858 22.4598 11.3843 22.6582C11.6047 22.8566 11.9134 22.9559 12.3103 22.9559C13.0819 19.8913 14.5481 17.6425 16.7087 16.2094C18.4945 14.9968 20.6993 14.3905 23.3229 14.3905C26.5859 14.3905 29.1434 15.085 30.9953 16.4739C31.6568 18.2377 31.9875 20.3984 31.9875 22.9559C31.9875 25.4913 31.4804 27.7952 30.4662 29.8677C29.7166 30.2645 28.6804 30.6063 27.3575 30.8929C26.0347 31.1574 24.7008 31.2897 23.3559 31.2897C22.0111 31.2897 20.7985 31.2015 19.7181 31.0252C18.6599 30.8267 17.8882 30.6504 17.4032 30.496C17.2268 30.6724 17.1386 30.9259 17.1386 31.2567C17.1386 31.5874 17.3481 31.8409 17.767 32.0173C18.2079 32.1716 18.9355 32.348 19.9496 32.5464V49.148C17.5465 50.6693 14.7024 51.4299 11.4173 51.4299ZM49.8153 36.5811C50.0799 36.5811 50.3665 36.4708 50.6752 36.2504C50.4547 35.5228 50.3445 34.3874 50.3445 32.8441V16.507C52.6815 15.096 55.4925 14.3905 58.7776 14.3905C60.6295 14.3905 62.25 14.644 63.639 15.1511C65.05 15.6362 66.1303 16.2865 66.8799 17.1023V34.3323C66.8799 37.6173 67.6736 39.7559 69.261 40.748C69.2831 40.8582 69.2941 41.0677 69.2941 41.3764V41.9716C69.2941 45.1905 68.4453 47.6268 66.7477 49.2803C65.2043 50.8236 63.0768 51.5953 60.365 51.5953C58.6673 51.5953 57.124 51.2094 55.735 50.4378C54.3681 49.6661 53.3429 48.5417 52.6594 47.0646C51.9098 47.0646 51.535 47.4283 51.535 48.1559C51.535 48.663 51.7886 49.1701 52.2957 49.6772C51.5901 50.2504 50.7413 50.7134 49.7492 51.0661C48.7571 51.4189 47.2909 51.5953 45.3508 51.5953C43.4326 51.5953 41.5586 51.1984 39.7287 50.4047C37.4578 49.4346 35.7161 47.9465 34.5035 45.9401C33.0263 43.559 32.2877 40.5386 32.2877 36.8787V28.5779C31.1633 26.6157 30.6011 24.4551 30.6011 22.096C30.6011 20.8834 30.7555 19.6267 31.0641 18.3259C31.3728 17.0251 31.8688 15.8676 32.5523 14.8535H39.8279C42.5618 14.8535 44.7004 15.5039 46.2437 16.8047C47.809 18.0834 48.5917 20.0346 48.5917 22.6582V33.3732C48.5917 35.5118 48.9996 36.5811 49.8153 36.5811ZM85.6338 25.0724C85.0606 25.2488 84.774 25.5905 84.774 26.0976V26.2629C84.774 26.3732 84.785 26.4393 84.807 26.4614C85.0495 26.4393 85.3692 26.4283 85.7661 26.4283H86.5598C89.0732 26.4283 91.4212 26.8141 93.6039 27.5858C95.8086 28.3354 97.6055 29.548 98.9945 31.2236C100.538 33.1197 101.309 35.5118 101.309 38.4C101.309 42.8976 99.7551 46.2929 96.6464 48.5858C93.5378 50.8787 89.3818 52.0252 84.1787 52.0252C78.9755 52.0252 74.8968 51.1654 71.9424 49.4457C69.0101 47.726 67.544 45.2016 67.544 41.8724C67.544 40.6378 67.8086 39.5134 68.3377 38.4992C68.8668 37.463 69.4621 36.7354 70.1235 36.3165C71.3361 37.3307 73.0889 38.2126 75.3818 38.9622C77.6968 39.6897 80.144 40.0535 82.7236 40.0535C83.7598 40.0535 84.2779 39.7669 84.2779 39.1937C84.2779 38.9291 84.2448 38.7086 84.1787 38.5323C84.0243 38.5543 83.8369 38.5653 83.6165 38.5653H83.2527C78.5787 38.5653 74.8417 37.6393 72.0416 35.7874C68.8668 33.6929 67.2794 30.7385 67.2794 26.9244C67.2794 23.1102 68.7015 20.0236 71.5456 17.6645C74.6983 15.0629 79.0306 13.7621 84.5425 13.7621C87.2543 13.7621 89.7787 14.0487 92.1157 14.622C94.4748 15.1952 96.4921 15.9558 98.1677 16.9039C98.5866 17.8078 98.796 19.1417 98.796 20.9055C98.796 23.5952 98.0574 25.6566 96.5803 27.0897C95.4559 26.4724 94.0779 25.9653 92.4464 25.5685C90.837 25.1496 89.3818 24.9401 88.081 24.9401C86.7803 24.9401 85.9645 24.9842 85.6338 25.0724ZM116.558 37.474C116.778 37.6945 117.043 37.8047 117.351 37.8047C117.837 37.8047 118.167 37.463 118.344 36.7795C118.52 36.074 118.608 34.663 118.608 32.5464V29.1732C118.608 28.5779 118.531 28.159 118.377 27.9165C118.222 27.674 117.969 27.5527 117.616 27.5527C117.263 27.5527 117.01 27.6299 116.855 27.7842V32.2157C116.855 33.5385 116.756 35.2913 116.558 37.474ZM117.881 10.3889V13.3322C116.029 13.4424 114.331 13.7291 112.788 14.1921C111.244 14.633 110.473 15.1511 110.473 15.7464C110.473 16.0991 110.649 16.3858 111.002 16.6062C113.427 15.4157 115.996 14.8204 118.707 14.8204C123.558 14.8204 127.526 16.496 130.613 19.8472C133.722 23.1763 135.276 27.5196 135.276 32.8771C135.276 39.359 133.402 44.2425 129.654 47.5276C126.237 50.526 121.585 52.0252 115.698 52.0252C109.833 52.0252 105.512 50.8898 102.734 48.6189C101.213 47.3622 100.452 45.7307 100.452 43.7244V5.99047C101.51 5.37314 102.778 4.86605 104.255 4.4692C105.755 4.07235 107.265 3.87393 108.786 3.87393C111.322 3.87393 113.416 4.36999 115.07 5.36212C116.944 6.53062 117.881 8.20622 117.881 10.3889ZM153.765 52.0252C147.658 52.0252 142.841 50.3276 139.313 46.9323C135.697 43.5149 133.89 38.8409 133.89 32.9102C133.89 26.9574 135.753 22.2393 139.479 18.7558C142.918 15.5149 147.272 13.8944 152.542 13.8944C157.811 13.8944 162.033 15.3495 165.208 18.2598C168.405 21.148 170.003 24.7086 170.003 28.9417C170.003 32.7118 168.691 35.5559 166.068 37.474C163.642 39.2819 160.335 40.1858 156.146 40.1858C153.016 40.1858 150.37 39.5354 148.209 38.2346C148.033 38.3669 147.945 38.6094 147.945 38.9622C147.945 39.6236 148.816 40.2299 150.557 40.7811C152.299 41.3764 154.272 41.674 156.477 41.674C158.704 41.674 160.721 41.3984 162.529 40.8472C164.359 40.274 165.825 39.6016 166.927 38.8299C167.457 39.2929 167.875 40.1527 168.184 41.4094C168.515 42.6441 168.68 43.7795 168.68 44.8157C168.68 45.8299 168.581 46.7339 168.383 47.5276C166.663 48.9827 164.899 50.0189 163.091 50.6362C160.534 51.5622 157.425 52.0252 153.765 52.0252ZM153.335 29.6362C154.438 29.6362 154.989 29.2173 154.989 28.3795C154.989 27.5858 154.405 27.1889 153.236 27.1889C152.068 27.1889 151.395 27.8173 151.219 29.074C151.836 29.4488 152.542 29.6362 153.335 29.6362ZM152.575 12.2078C149.356 12.2078 146.523 12.7921 144.075 13.9606L152.079 2.38573C153.776 1.19518 155.595 0.599904 157.535 0.599904C159.497 0.599904 161.052 1.2062 162.198 2.4188C163.367 3.60936 163.951 4.98731 163.951 6.55267C163.951 8.09598 163.455 9.3637 162.463 10.3558C161.691 11.1275 160.501 11.8109 158.891 12.4062L157.866 12.8031C156.168 12.4062 154.405 12.2078 152.575 12.2078Z" fill="#EC2600"/>
</svg>    